<svg width="1911" height="1788" viewBox="0 0 1911 1788" fill="none" xmlns="http://www.w3.org/2000/svg">
<rect width="1911" height="1788" fill="#E5E5E5"/>
<path d="M0 0H1463V3464H0V0Z" transform="translate(-345 -1938) scale(3)" fill="white"/>
<path d="M309.523 94.1487C317.934 51.3154 313.23 18.8078 293.349 5.88957C286.721 1.58348 278.776 -0.300847 269.834 0.0388199C221.545 1.87302 143.631 68.3958 79.9719 166.474C4.52432 282.715 -22.2877 399.211 20.1269 426.77C40.2605 439.852 72.3432 430.578 108.588 404.736" transform="translate(374.287 363.474) scale(3)" stroke="#273C42" stroke-width="40" stroke-linecap="round"/>
<path d="M441.979 160.339C477.789 146.44 499.809 127.415 500.953 105.566C503.6 55.0347 393.69 8.25302 255.352 0.999193C242.383 0.319148 229.63 -0.0386814 217.156 0.00332053C96.5712 0.409346 2.44541 33.5058 0.0467362 79.2997C-1.09549 101.106 18.7611 122.251 52.7999 139.799" transform="translate(93 735.165) scale(3)" stroke="#273C42" stroke-width="40" stroke-linecap="round"/>
<path d="M105.871 29.9936C81.3702 9.65439 58.3914 -1.26791 39.9296 0.117478C35.0142 0.486337 30.4681 1.69836 26.2436 3.852C-18.8178 26.8241 -4.42236 145.633 58.4679 269.128C121.358 392.622 208.867 474.095 253.928 451.123C297.263 429.031 285.567 318.323 228.672 200.039" transform="translate(424.242 330) scale(3)" stroke="#273C42" stroke-width="40" stroke-linecap="round"/>
<path d="M225 0L419.856 337.5L30.1443 337.5L225 0Z" transform="translate(1989 -135) scale(3) rotate(90)" fill="white"/>
<path d="M68.5 39C68.5 46.8239 65.392 54.3273 59.8596 59.8596C54.3273 65.392 46.8239 68.5 39 68.5C31.1761 68.5 23.6727 65.392 18.1403 59.8596C12.608 54.3273 9.5 46.8239 9.5 39C9.5 31.1761 12.608 23.6727 18.1403 18.1403C23.6727 12.608 31.1761 9.5 39 9.5C46.8239 9.5 54.3273 12.608 59.8596 18.1403C65.392 23.6727 68.5 31.1761 68.5 39Z" transform="translate(729 894) scale(3)" fill="#273C42" stroke="#273C42" stroke-width="19"/>
<path d="M155.452 0L310.903 269.25H0L155.452 0Z" transform="translate(1884 24.1454) scale(3) rotate(90)" fill="#0099BB"/>
</svg>
